<svg width="24" height="22" viewBox="0 0 24 22" fill="none" xmlns="http://www.w3.org/2000/svg">
<g filter="url(#filter0_d_273_5)">
<path d="M18 8.82C17.7348 8.82 17.4804 8.92536 17.2929 9.11289C17.1054 9.30043 17 9.55478 17 9.82V17C17 17.2652 16.8946 17.5196 16.7071 17.7071C16.5196 17.8946 16.2652 18 16 18H5C4.73478 18 4.48043 17.8946 4.29289 17.7071C4.10536 17.5196 4 17.2652 4 17V6C4 5.73478 4.10536 5.48043 4.29289 5.29289C4.48043 5.10536 4.73478 5 5 5H12.18C12.4452 5 12.6996 4.89464 12.8871 4.70711C13.0746 4.51957 13.18 4.26522 13.18 4C13.18 3.73478 13.0746 3.48043 12.8871 3.29289C12.6996 3.10536 12.4452 3 12.18 3H5C4.20435 3 3.44129 3.31607 2.87868 3.87868C2.31607 4.44129 2 5.20435 2 6V17C2 17.7956 2.31607 18.5587 2.87868 19.1213C3.44129 19.6839 4.20435 20 5 20H16C16.7956 20 17.5587 19.6839 18.1213 19.1213C18.6839 18.5587 19 17.7956 19 17V9.82C19 9.55478 18.8946 9.30043 18.7071 9.11289C18.5196 8.92536 18.2652 8.82 18 8.82ZM21.92 0.62C21.8185 0.375651 21.6243 0.181475 21.38 0.0799999C21.2598 0.028759 21.1307 0.00157999 21 0H15C14.7348 0 14.4804 0.105357 14.2929 0.292893C14.1054 0.48043 14 0.734784 14 1C14 1.26522 14.1054 1.51957 14.2929 1.70711C14.4804 1.89464 14.7348 2 15 2H18.59L8.29 12.29C8.19627 12.383 8.12188 12.4936 8.07111 12.6154C8.02034 12.7373 7.9942 12.868 7.9942 13C7.9942 13.132 8.02034 13.2627 8.07111 13.3846C8.12188 13.5064 8.19627 13.617 8.29 13.71C8.38296 13.8037 8.49356 13.8781 8.61542 13.9289C8.73728 13.9797 8.86799 14.0058 9 14.0058C9.13201 14.0058 9.26272 13.9797 9.38458 13.9289C9.50644 13.8781 9.61704 13.8037 9.71 13.71L20 3.41V7C20 7.26522 20.1054 7.51957 20.2929 7.70711C20.4804 7.89464 20.7348 8 21 8C21.2652 8 21.5196 7.89464 21.7071 7.70711C21.8946 7.51957 22 7.26522 22 7V1C21.9984 0.869323 21.9712 0.740222 21.92 0.62Z" fill="black"/>
</g>
<defs>
<filter id="filter0_d_273_5" x="-2" y="0" width="28" height="28" filterUnits="userSpaceOnUse" color-interpolation-filters="sRGB">
<feFlood flood-opacity="0" result="BackgroundImageFix"/>
<feColorMatrix in="SourceAlpha" type="matrix" values="0 0 0 0 0 0 0 0 0 0 0 0 0 0 0 0 0 0 127 0" result="hardAlpha"/>
<feOffset dy="4"/>
<feGaussianBlur stdDeviation="2"/>
<feComposite in2="hardAlpha" operator="out"/>
<feColorMatrix type="matrix" values="0 0 0 0 0 0 0 0 0 0 0 0 0 0 0 0 0 0 0.25 0"/>
<feBlend mode="normal" in2="BackgroundImageFix" result="effect1_dropShadow_273_5"/>
<feBlend mode="normal" in="SourceGraphic" in2="effect1_dropShadow_273_5" result="shape"/>
</filter>
</defs>
</svg>
